# xmcd
#
# Track frame offsets: 
#        150
#        28008
#        48217
#        64929
#        94458
#        101489
#        123882
#        145886
#        163772
#        183013
#        191309
#        201281
#        220540
#        246559
#
# Disc length: 3434 seconds
#
# Revision: 8
# Processed by: cddbd v1.5.2PL0 Copyright (c) Steve Scherf et al.
# Submitted via: ExactAudioCopy v1.3
#
DISCID=c50d680e
DTITLE=Apoptygma Berzerk - Rocket Science
DYEAR=2009
DGENRE=Synth-pop
TTITLE0=Weight Of The World
TTITLE1=Apollo (Live On Your TV)
TTITLE2=Asleep Or Awake?
TTITLE3=Incompatible
TTITLE4=United States Of Credit
TTITLE5=Shadow
TTITLE6=Green Queen
TTITLE7=Butterfly Defect
TTITLE8=State Of Your Heart (Sh*t End Of The Deal)
TTITLE9=Rocket Calculator
TTITLE10=Right
TTITLE11=Pitch Black - Heat Death
TTITLE12=Black Versus White
TTITLE13=Trash
EXTD=
EXTT0=
EXTT1=
EXTT2=
EXTT3=
EXTT4=
EXTT5=
EXTT6=
EXTT7=
EXTT8=
EXTT9=
EXTT10=
EXTT11=
EXTT12=
EXTT13=
PLAYORDER=
